<?xml version="1.0" encoding="utf-8"?>
<!-- Generator: Adobe Illustrator 16.0.4, SVG Export Plug-In . SVG Version: 6.00 Build 0)  -->
<!DOCTYPE svg PUBLIC "-//W3C//DTD SVG 1.1//EN" "http://www.w3.org/Graphics/SVG/1.1/DTD/svg11.dtd">
<svg version="1.1" id="Layer_1" xmlns="http://www.w3.org/2000/svg" xmlns:xlink="http://www.w3.org/1999/xlink" x="0px" y="0px"
	 viewBox="0 0 420 133" enable-background="new 0 0 420 133" xml:space="preserve">
<g>
	<path fill="#E44D35" d="M122.91,75.562c1.609-1.849,3.268-3.962,4.794-6.314c6.914-1.226,18.929-4.895,21.229-15.663
		c0,0-6.72-0.086-15.354-0.175c0.201-1.971,0.23-4.022,0.021-6.16c-1.646-11.41-8.409-18.305-13.712-21.714
		c-10.534-6.39-17.304-7.343-17.308-7.63c-0.011-0.28-27.061-8.187-57.238-5.768c-7.551,0.604-15.289,1.606-22.9,3.917
		c-3.802,1.147-7.572,2.546-11.275,4.74c-1.85,1.106-3.682,2.34-5.455,4.021c-7.402,6.003-2.114,14.771-2.114,14.771
		C13.64,53.422,24.704,58.094,29.684,60.878c19.281,8.959,31.071,8.397,47.78,7.457C62.11,60.077,51.592,55.576,34.373,47.313
		c-3.771-2.025-11.457-5.813-18.029-13.083c0.072-0.043,0.141-0.089,0.215-0.133c2.537-1.527,5.64-2.721,8.873-3.687
		c6.477-1.985,13.652-2.956,20.655-3.516c28.434-2.283,53.8,5.072,53.507,5.256c-0.166,0.138,6.542,1.446,14.421,6.303
		c3.688,2.169,6.647,6.34,7.452,10.844c0.178,1.185,0.059,2.542-0.305,3.998c-11.807-0.092-23.219-0.127-24.684,0.062
		c-2.985,0.552-1.676,14.934,1.455,14.591c1.623-0.101,7.078,0.294,12.466,0.748c-24.108,21.169-85.582,50.656-98.87,61.146
		c0,0,10.652,6.791,46.464-12.346C67.763,112.173,98.611,100.654,122.91,75.562z"/>
	<path fill="#E44D35" d="M367.823,77.172c7.556-9.824,12.205-22.777,16.694-37.287c13.784-44.585-26.826-56.393-36.797,0.649
		c-2.241,12.811-0.722,25.741,3.625,34.949c-6.129,5.947-12.671,10.374-18.445,13.107c-15.328,7.623-25.85,5.676-25.693,5.93
		c0.026-0.088-2.541-0.041-6.728-1.158c-0.586-0.199-1.219-0.422-1.868-0.662c0,0,7.246-1,11.432-6.314
		c20.572-28.674-4.989-35.351-21.447-20.36c-4.046,4.902-7.426,9.696-9.383,16.738c-8.953,1.55-18.228,2.002-27.041,1.332
		c-2.182-0.167-4.342-0.43-6.439-0.797c17.17-13.983,20.385-30.283,20.385-30.283c-3.478,1.661-35.164,23.914-35.272,24.042
		c-0.02-0.026-0.05-0.053-0.069-0.079l-0.446-0.7l-0.036-0.257l-0.061-0.108l-0.041-0.049l-0.02-0.023
		c-0.523-0.718-14.583-20.632-40.856,4.815c-7.213,5.35-13.121,7.121-13.109,6.178c-0.517,0.102-2.276-3.009-3.062-6.752
		c-0.489-1.791-0.791-3.812-1.144-5.722l-0.406-2.963l-0.104-0.731L171.44,70.3l-0.015-0.092c0,0-0.992-14.057-26.015,9.506
		c-26.923,25.355-31.576,36.408-31.419,36.32c3.713-2.039,43.438-31.725,47.226-34.221c0.121,0.688,0.254,1.384,0.418,2.099
		c1.247,4.731,2.393,11.905,9.774,16.433c17.783,6.199,27.922-27.703,47.687-16.711c0.231,0.036,0.454,0.115,0.683,0.174
		c0.251,0.472,0.515,0.935,0.792,1.384c-4.01,3.294-7.964,6.667-9.291,8.147c-12.808,9.912-7.38,26.645,7.487,11.602
		c1.657-1.682,7.812-6.809,12.589-10.701c0.088,0.043,0.175,0.09,0.264,0.131c6.592,2.824,13.137,3.949,19.709,4.494
		c9.925,0.734,19.93,0.244,29.82-1.498c0.183,0.232,0.366,0.463,0.569,0.684c2.249,2.23,3.857,3.648,5.839,4.896
		c3.729,2.592,7.234,3.783,10.063,4.713c5.709,1.523,8.915,1.424,8.917,1.533c-0.151-0.221,13.296,1.916,30.998-6.973
		c6.609-3.189,14.16-8.178,21.315-15.043c4.248,5.373,41.646,52.191,59.382-0.557C392.81,111.396,371.264,81.456,367.823,77.172z
		 M295.845,78.222c4.618-12.461,16.217-5.523,7.411-0.138C296.765,80.846,295.845,78.222,295.845,78.222z M360.62,64.646
		c-2.057-5.763-2.837-12.536-1.019-20.36c2.016-9.384,7.162-19.099,13.563-28.266c0.02,0.171,0.044,0.343,0.065,0.514
		c0.774,6.772,0.524,13.632-0.702,20.171C370.559,47.5,366.141,56.843,360.62,64.646z"/>
	<path fill="#E44D35" d="M170.963,50.274c0,0,2.6,1.815,3.184,2.049c0.539,0.217,1.945-1.807,4.438-5.614
		c1.675-4.334,2.524-6.715,2.085-7.13c-0.475-0.448-3.186-2.05-3.186-2.05s-2.601-1.816-3.187-2.051
		c-0.539-0.216-1.943,1.808-4.435,5.617c-1.673,4.334-2.522,6.716-2.083,7.129C168.255,48.672,170.963,50.274,170.963,50.274z"/>
</g>
</svg>
